<svg width="865" height="877" viewBox="0 0 865 877" fill="none" xmlns="http://www.w3.org/2000/svg">
<path d="M343.419 684.779C154.98 651.176 10.3717 515.743 10.3717 353.979C10.3717 167.437 201.79 10.8313 432.948 10.8313C664.105 10.8313 854.628 167.437 854.628 353.979C854.628 536.41 676.693 685.918 452.644 692.421" stroke="#49A35A" stroke-width="20" stroke-linecap="round" stroke-linejoin="round"/>
<path d="M343.705 685.018C322.219 765.643 308.945 804.569 270.095 851.425" stroke="#49A35A" stroke-width="20" stroke-linecap="round"/>
<path d="M452.198 692.642C398.033 778.317 353.269 816.445 270.007 850.984" stroke="#49A35A" stroke-width="20" stroke-linecap="round"/>
<path d="M459.875 278.117C466.125 278.117 471.008 281.047 474.523 286.906C478.039 292.375 479.797 299.602 479.797 308.586C479.797 316.789 478.625 327.141 476.281 339.641L450.5 470.891C449.328 475.578 448.742 480.461 448.742 485.539C448.742 495.305 450.695 500.188 454.602 500.188C456.945 500.188 459.68 499.211 462.805 497.258C466.32 494.914 469.641 492.18 472.766 489.055C476.281 485.93 479.406 483 482.141 480.266C484.875 477.141 487.414 474.406 489.758 472.062L493.273 467.961C494.055 467.961 495.422 469.914 497.375 473.82C499.719 477.336 500.891 479.875 500.891 481.438C495.812 490.031 485.266 501.359 469.25 515.422C453.234 529.484 439.172 536.516 427.062 536.516C420.812 536.516 415.93 533.781 412.414 528.312C408.898 522.453 407.141 515.031 407.141 506.047C407.141 499.797 408.508 489.445 411.242 474.992L435.266 352.531C437.219 340.422 438.195 332.609 438.195 329.094C438.195 319.328 436.242 314.445 432.336 314.445C430.773 314.445 428.625 315.422 425.891 317.375C423.156 318.938 420.227 321.086 417.102 323.82C414.367 326.555 411.828 329.094 409.484 331.438C407.141 333.781 404.992 336.125 403.039 338.469L400.109 341.984C399.328 341.984 397.766 340.227 395.422 336.711C393.469 332.805 392.492 330.07 392.492 328.508C397.18 320.695 406.945 310.344 421.789 297.453C437.023 284.562 449.719 278.117 459.875 278.117ZM476.867 154.484C482.727 154.484 487.609 156.828 491.516 161.516C495.812 166.203 497.961 171.672 497.961 177.922C497.961 187.297 494.836 195.5 488.586 202.531C482.727 209.562 475.305 213.078 466.32 213.078C460.07 213.078 455.188 210.734 451.672 206.047C448.156 200.969 446.398 194.914 446.398 187.883C446.398 178.898 449.328 171.086 455.188 164.445C461.047 157.805 468.273 154.484 476.867 154.484Z" fill="#49A35A"/>
</svg>
